{"title":"Geordie Shore S12E07 1080P WEB-DL AAC2 0 H 264","uid":14451758,"size":1620981536,"categoryP":"video","categoryS":"hd___tv_shows","magnet":"?xt=urn:btih:9eb5662d5c73ffd83a7475f729045860480b3308&amp;dn=Geordie+Shore+S12E07+1080P+WEB-DL+AAC2+0+H+264&amp;tr=udp%3A%2F%2Ftracker.leechers-paradise.org%3A6969&amp;tr=udp%3A%2F%2Fzer0day.ch%3A1337&amp;tr=udp%3A%2F%2Fopen.demonii.com%3A1337&amp;tr=udp%3A%2F%2Ftracker.coppersurfer.tk%3A6969&amp;tr=udp%3A%2F%2Fexodus.desync.com%3A6969","seeders":6,"leechers":1,"uploader":"jmanwf","files":1,"time":1461758895,"description":"Description\r\nMarnie necks on with new lad Marty to teach Aaron a lesson. Charlotte's got Chloe's back when it all kicks off between the girls. Gary and Charlotte end up in bed causing ripples.\r\n\r\n\r\nVideo\r\nID : 2\r\nFormat : AVC\r\nFormat/Info : Advanced Video Codec\r\nFormat profile :   \r\nFormat settings, CABAC : Yes\r\nFormat settings, ReFrames : 4 frames\r\nCodec ID : avc1\r\nCodec ID/Info : Advanced Video Coding\r\nDuration : 42mn 29s\r\nBit rate : 4 957 Kbps\r\nWidth : 1 920 pixels\r\nHeight : 1 080 pixels\r\nDisplay aspect ratio : 16:9\r\nFrame rate mode : Constant\r\nFrame rate : 25.000 fps\r\nColor space : YUV\r\nChroma subsampling : 4:2:0\r\nBit depth : 8 bits\r\nScan type : Progressive\r\nBits/(Pixel*Frame) : 0.096\r\nStream size : 1.47 GiB (97%)\r\nLanguage : English\r\nEncoded date : UTC 2016-04-27 05:20:37\r\nTagged date : UTC 2016-04-27 05:23:32\r\nColor range : Limited\r\nColor primaries : BT.709\r\nTransfer characteristics : BT.709\r\nMatrix coefficients : BT.709\r\n\r\nAudio\r\nID : 1\r\nFormat : AAC\r\nFormat/Info : Advanced Audio Codec\r\nFormat profile : LC\r\nCodec ID : 40\r\nDuration : 42mn 29s\r\nBit rate mode : Variable\r\nBit rate : 126 Kbps\r\nMaximum bit rate : 208 Kbps\r\nChannel(s) : 2 channels\r\nChannel positions : Front: L R\r\nSampling rate : 48.0 KHz\r\nFrame rate : 46.875 fps (1024 spf)\r\nCompression mode : Lossy\r\nStream size : 38.2 MiB (2%)\r\nLanguage : English\r\nDefault : Yes\r\nAlternate group : 1\r\nEncoded date : UTC 2016-04-27 05:20:37\r\nTagged date : UTC 2016-04-27 05:23:32","torrent":{"xt":"urn:btih:9eb5662d5c73ffd83a7475f729045860480b3308","amp;dn":"Geordie+Shore+S12E07+1080P+WEB-DL+AAC2+0+H+264","amp;tr":["udp%3A%2F%2Ftracker.leechers-paradise.org%3A6969","udp%3A%2F%2Fzer0day.ch%3A1337","udp%3A%2F%2Fopen.demonii.com%3A1337","udp%3A%2F%2Ftracker.coppersurfer.tk%3A6969","udp%3A%2F%2Fexodus.desync.com%3A6969"],"infoHash":"9eb5662d5c73ffd83a7475f729045860480b3308","infoHashBuffer":{"type":"Buffer","data":[158,181,102,45,92,115,255,216,58,116,117,247,41,4,88,96,72,11,51,8]},"announce":[],"urlList":[]}}